<svg width="683pt" height="372pt" viewBox="0.00 0.00 683.00 372.00" xmlns="http://www.w3.org/2000/svg" xmlns:xlink="http://www.w3.org/1999/xlink"><g id="graph0" class="graph" transform="scale(1 1) rotate(0) translate(4 368)"><title>G</title><polygon fill="#ffffff" stroke="transparent" points="-4,4 -4,-368 679,-368 679,4 -4,4"></polygon><g id="clust1" class="cluster"><title>cluster_0</title><polygon fill="#bbdefb" stroke="#bbdefb" points="186,-8 186,-255 445,-255 445,-8 186,-8"></polygon><text text-anchor="middle" x="315.5" y="-243" font-family="Times,serif" font-size="10.00" fill="#000000">Cloud / server / VM</text></g><g id="clust2" class="cluster"><title>cluster_1</title><polygon fill="#bbdefb" stroke="#bbdefb" points="8,-92 8,-164 178,-164 178,-92 8,-92"></polygon><text text-anchor="middle" x="93" y="-152" font-family="Times,serif" font-size="10.00" fill="#000000">LoRa® Gateway</text></g><g id="clust3" class="cluster"><title>cluster_2</title><polygon fill="#bbdefb" stroke="#bbdefb" points="92,-284 92,-356 238,-356 238,-284 92,-284"></polygon><text text-anchor="middle" x="165" y="-344" font-family="Times,serif" font-size="10.00" fill="#000000">LoRa® Gateway</text></g><g id="clust4" class="cluster"><title>cluster_3</title><polygon fill="#bbdefb" stroke="#bbdefb" points="246,-284 246,-356 350,-356 350,-284 246,-284"></polygon><text text-anchor="middle" x="298" y="-344" font-family="Times,serif" font-size="10.00" fill="#000000">LoRa® Gateway</text></g><g id="clust5" class="cluster"><title>cluster_5</title><polygon fill="#bbdefb" stroke="#bbdefb" points="453,-92 453,-164 667,-164 667,-92 453,-92"></polygon><text text-anchor="middle" x="560" y="-152" font-family="Times,serif" font-size="10.00" fill="#000000">Integrations</text></g><!-- chirpstack --><g id="node1" class="node"><title>chirpstack</title><polygon fill="#e3f2fd" stroke="#e3f2fd" points="365.5,-191.5 365.5,-227.5 436.5,-227.5 436.5,-191.5 365.5,-191.5"></polygon><text text-anchor="middle" x="401" y="-207" font-family="Times,serif" font-size="10.00" fill="#000000">ChirpStack</text></g><!-- pub&#45;sub --><g id="node2" class="node"><title>pub-sub</title><polygon fill="#e3f2fd" stroke="#e3f2fd" points="229,-16.5 229,-52.5 313,-52.5 313,-16.5 229,-16.5"></polygon><text text-anchor="middle" x="271" y="-32" font-family="Times,serif" font-size="10.00" fill="#000000">MQTT broker</text></g><!-- chirpstack&#45;&gt;pub&#45;sub --><g id="edge1" class="edge"><title>chirpstack-&gt;pub-sub</title><path fill="none" stroke="#000000" d="M381.5876,-183.368C357.1225,-150.4342 315.3039,-94.1399 290.7025,-61.0226"></path><polygon fill="#000000" stroke="#000000" points="378.8045,-185.4907 387.5774,-191.4311 384.4237,-181.3165 378.8045,-185.4907"></polygon><polygon fill="#000000" stroke="#000000" points="293.3173,-58.6731 284.5444,-52.7328 287.6981,-62.8474 293.3173,-58.6731"></polygon><text text-anchor="middle" x="382" y="-116" font-family="Times,serif" font-size="10.00" fill="#000000">MQTT</text></g><!-- http&#45;int --><g id="node7" class="node"><title>http-int</title><polygon fill="#e3f2fd" stroke="#e3f2fd" points="461,-100.5 461,-136.5 515,-136.5 515,-100.5 461,-100.5"></polygon><text text-anchor="middle" x="488" y="-116" font-family="Times,serif" font-size="10.00" fill="#000000">HTTP</text></g><!-- chirpstack&#45;&gt;http&#45;int --><g id="edge6" class="edge"><title>chirpstack-&gt;http-int</title><path fill="none" stroke="#000000" d="M421.0635,-191.3516C429.8414,-183.1919 440.1368,-173.3182 449,-164 454.8483,-157.8514 460.9289,-151.0021 466.5001,-144.5228"></path><polygon fill="#000000" stroke="#000000" points="469.4268,-146.4833 473.2286,-136.594 464.0896,-141.954 469.4268,-146.4833"></polygon></g><!-- mqtt&#45;int --><g id="node8" class="node"><title>mqtt-int</title><polygon fill="#e3f2fd" stroke="#e3f2fd" points="533,-100.5 533,-136.5 587,-136.5 587,-100.5 533,-100.5"></polygon><text text-anchor="middle" x="560" y="-116" font-family="Times,serif" font-size="10.00" fill="#000000">MQTT</text></g><!-- chirpstack&#45;&gt;mqtt&#45;int --><g id="edge7" class="edge"><title>chirpstack-&gt;mqtt-int</title><path fill="none" stroke="#000000" d="M436.6107,-201.8383C462.606,-194.9981 497.743,-183.059 524,-164 530.9926,-158.9243 537.3411,-152.1414 542.6921,-145.3653"></path><polygon fill="#000000" stroke="#000000" points="545.8024,-147.0438 548.9098,-136.9149 540.1641,-142.8952 545.8024,-147.0438"></polygon></g><!-- other&#45;int --><g id="node9" class="node"><title>other-int</title><polygon fill="#e3f2fd" stroke="#e3f2fd" points="605,-100.5 605,-136.5 659,-136.5 659,-100.5 605,-100.5"></polygon><text text-anchor="middle" x="632" y="-116" font-family="Times,serif" font-size="10.00" fill="#000000">Etc ...</text></g><!-- chirpstack&#45;&gt;other&#45;int --><g id="edge8" class="edge"><title>chirpstack-&gt;other-int</title><path fill="none" stroke="#000000" d="M436.5903,-204.0846C485.3323,-196.1846 569.801,-180.6208 596,-164 603.7029,-159.1133 610.461,-151.9898 615.979,-144.8238"></path><polygon fill="#000000" stroke="#000000" points="618.9363,-146.7042 621.8691,-136.5233 613.2275,-142.6532 618.9363,-146.7042"></polygon></g><!-- chirpstack&#45;gateway&#45;bridge&#45;cloud --><g id="node3" class="node"><title>chirpstack-gateway-bridge-cloud</title><polygon fill="#e3f2fd" stroke="#e3f2fd" points="194.5,-191.5 194.5,-227.5 347.5,-227.5 347.5,-191.5 194.5,-191.5"></polygon><text text-anchor="middle" x="271" y="-207" font-family="Times,serif" font-size="10.00" fill="#000000">ChirpStack Gateway Bridge</text></g><!-- chirpstack&#45;gateway&#45;bridge&#45;cloud&#45;&gt;pub&#45;sub --><g id="edge2" class="edge"><title>chirpstack-gateway-bridge-cloud-&gt;pub-sub</title><path fill="none" stroke="#000000" d="M271,-181.0608C271,-148.5026 271,-95.4833 271,-62.9292"></path><polygon fill="#000000" stroke="#000000" points="267.5001,-181.431 271,-191.4311 274.5001,-181.4311 267.5001,-181.431"></polygon><polygon fill="#000000" stroke="#000000" points="274.5001,-62.7328 271,-52.7328 267.5001,-62.7329 274.5001,-62.7328"></polygon><text text-anchor="middle" x="287" y="-116" font-family="Times,serif" font-size="10.00" fill="#000000">MQTT</text></g><!-- chirpstack&#45;gateway&#45;bridge&#45;gw --><g id="node4" class="node"><title>chirpstack-gateway-bridge-gw</title><polygon fill="#e3f2fd" stroke="#e3f2fd" points="16.5,-100.5 16.5,-136.5 169.5,-136.5 169.5,-100.5 16.5,-100.5"></polygon><text text-anchor="middle" x="93" y="-121.5" font-family="Times,serif" font-size="10.00" fill="#000000">UDP Packet Forwarder +</text><text text-anchor="middle" x="93" y="-110.5" font-family="Times,serif" font-size="10.00" fill="#000000">ChirpStack Gateway Bridge</text></g><!-- chirpstack&#45;gateway&#45;bridge&#45;gw&#45;&gt;pub&#45;sub --><g id="edge3" class="edge"><title>chirpstack-gateway-bridge-gw-&gt;pub-sub</title><path fill="none" stroke="#000000" d="M140.2627,-96.1962C165.9502,-84.074 197.6344,-69.122 223.3776,-56.9735"></path><polygon fill="#000000" stroke="#000000" points="138.7353,-93.0468 131.1855,-100.4799 141.7228,-99.3773 138.7353,-93.0468"></polygon><polygon fill="#000000" stroke="#000000" points="225.0211,-60.0681 232.571,-52.635 222.0337,-53.7376 225.0211,-60.0681"></polygon><text text-anchor="middle" x="209" y="-74" font-family="Times,serif" font-size="10.00" fill="#000000">MQTT</text></g><!-- packet&#45;forwarder&#45;gw2 --><g id="node5" class="node"><title>packet-forwarder-gw2</title><polygon fill="#e3f2fd" stroke="#e3f2fd" points="100,-292.5 100,-328.5 230,-328.5 230,-292.5 100,-292.5"></polygon><text text-anchor="middle" x="165" y="-308" font-family="Times,serif" font-size="10.00" fill="#000000">UDP Packet Forwarder</text></g><!-- packet&#45;forwarder&#45;gw2&#45;&gt;chirpstack&#45;gateway&#45;bridge&#45;cloud --><g id="edge4" class="edge"><title>packet-forwarder-gw2-&gt;chirpstack-gateway-bridge-cloud</title><path fill="none" stroke="#000000" d="M191.5845,-285.1695C207.7001,-269.8141 228.1934,-250.2874 244.3254,-234.9164"></path><polygon fill="#000000" stroke="#000000" points="188.7761,-283.011 183.9507,-292.4432 193.6049,-288.0789 188.7761,-283.011"></polygon><polygon fill="#000000" stroke="#000000" points="247.0306,-237.1732 251.856,-227.741 242.2018,-232.1053 247.0306,-237.1732"></polygon><text text-anchor="middle" x="225.5" y="-266" font-family="Times,serif" font-size="10.00" fill="#000000">UDP</text></g><!-- packet&#45;forwarder&#45;gw3 --><g id="node6" class="node"><title>packet-forwarder-gw3</title><polygon fill="#e3f2fd" stroke="#e3f2fd" points="254.5,-292.5 254.5,-328.5 341.5,-328.5 341.5,-292.5 254.5,-292.5"></polygon><text text-anchor="middle" x="298" y="-308" font-family="Times,serif" font-size="10.00" fill="#000000">Basics Station</text></g><!-- packet&#45;forwarder&#45;gw3&#45;&gt;chirpstack&#45;gateway&#45;bridge&#45;cloud --><g id="edge5" class="edge"><title>packet-forwarder-gw3-&gt;chirpstack-gateway-bridge-cloud</title><path fill="none" stroke="#000000" d="M290.58,-282.7438C286.8097,-268.6399 282.2395,-251.5441 278.4631,-237.4174"></path><polygon fill="#000000" stroke="#000000" points="287.209,-283.6864 293.1729,-292.4432 293.9716,-281.8785 287.209,-283.6864"></polygon><polygon fill="#000000" stroke="#000000" points="281.8402,-236.4978 275.8763,-227.741 275.0777,-238.3057 281.8402,-236.4978"></polygon><text text-anchor="middle" x="316.5" y="-266" font-family="Times,serif" font-size="10.00" fill="#000000">Websockets</text></g><!-- as&#45;api&#45;client --><g id="node10" class="node"><title>as-api-client</title><polygon fill="none" stroke="#000000" points="369,-292.5 369,-328.5 433,-328.5 433,-292.5 369,-292.5"></polygon><text text-anchor="middle" x="401" y="-308" font-family="Times,serif" font-size="10.00" fill="#000000">API client</text></g><!-- as&#45;api&#45;client&#45;&gt;chirpstack --><g id="edge9" class="edge"><title>as-api-client-&gt;chirpstack</title><path fill="none" stroke="#000000" d="M401,-292.4432C401,-277.313 401,-255.4448 401,-237.961"></path><polygon fill="#000000" stroke="#000000" points="404.5001,-237.7409 401,-227.741 397.5001,-237.741 404.5001,-237.7409"></polygon><text text-anchor="middle" x="415" y="-266" font-family="Times,serif" font-size="10.00" fill="#000000">gRPC</text></g></g></svg>